<?xml version="1.0" standalone="no"?>
<!DOCTYPE svg PUBLIC "-//W3C//DTD SVG 20010904//EN"
 "http://www.w3.org/TR/2001/REC-SVG-20010904/DTD/svg10.dtd">
<svg version="1.0" xmlns="http://www.w3.org/2000/svg"
 width="643.000000pt" height="643.000000pt" viewBox="0 0 643.000000 643.000000"
 preserveAspectRatio="xMidYMid meet">
<metadata>
Created by potrace 1.14, written by Peter Selinger 2001-2017
</metadata>
<g transform="translate(0.000000,643.000000) scale(0.100000,-0.100000)"
fill="#000000" stroke="none">
<path d="M3366 6374 c-32 -32 -65 -72 -73 -89 -9 -16 -19 -32 -23 -35 -21 -15
-102 -218 -116 -289 -1 -7 -7 -34 -13 -60 -6 -25 -13 -64 -16 -86 -3 -22 -7
-52 -10 -67 -4 -23 -13 -177 -15 -266 0 -21 -8 -16 -60 38 -34 33 -95 83 -136
110 -66 43 -201 104 -259 116 -60 14 -129 23 -134 19 -3 -3 15 -25 40 -48 24
-23 56 -59 71 -79 15 -20 34 -43 42 -51 22 -22 123 -227 111 -227 -1 0 3 -20
11 -45 7 -25 11 -45 9 -45 -2 0 -27 9 -54 19 -133 53 -281 72 -476 61 -53 -3
-167 -34 -228 -62 -37 -17 -66 -33 -64 -35 2 -2 24 -6 48 -9 24 -3 55 -8 69
-10 14 -3 39 -7 55 -10 55 -8 197 -57 248 -85 l50 -27 -74 6 c-139 11 -331 6
-434 -13 -16 -3 -46 -8 -65 -11 -31 -5 -150 -31 -175 -38 -5 -2 -14 -5 -20 -6
-52 -13 -215 -79 -298 -119 -90 -44 -274 -152 -287 -170 -3 -3 -23 -19 -45
-36 -59 -44 -60 -44 -143 -125 -107 -105 -172 -181 -266 -310 -27 -37 -186
-297 -186 -304 0 -2 -20 -46 -44 -97 -24 -52 -50 -110 -59 -129 -20 -45 -95
-272 -101 -305 -3 -14 -7 -29 -10 -34 -4 -5 -8 -22 -11 -38 -2 -15 -9 -47 -14
-71 -6 -23 -14 -59 -17 -80 -3 -20 -7 -44 -9 -52 -2 -8 -7 -37 -11 -65 -3 -27
-8 -59 -10 -70 -12 -58 -19 -204 -18 -400 0 -196 4 -281 18 -380 2 -16 7 -50
10 -75 25 -194 106 -517 163 -650 8 -19 19 -44 23 -55 4 -11 26 -60 49 -108
22 -48 41 -92 41 -98 0 -5 3 -9 8 -9 4 0 16 -20 27 -45 11 -25 22 -45 25 -45
3 0 14 -17 25 -37 41 -79 194 -272 300 -379 103 -104 142 -138 240 -215 60
-47 246 -167 255 -165 3 0 19 -8 35 -20 17 -11 62 -36 100 -55 39 -19 73 -38
76 -42 3 -5 8 -8 10 -7 5 2 113 -40 184 -71 30 -13 182 -64 250 -85 74 -22 75
-22 103 -28 13 -3 31 -7 40 -10 18 -6 51 -13 122 -26 25 -5 54 -11 66 -14 97
-21 435 -27 664 -11 144 9 332 9 475 -1 231 -15 585 -9 656 12 10 2 30 7 45 9
16 2 40 7 54 10 14 3 34 8 45 10 11 2 47 11 80 20 33 8 70 18 82 20 53 12 327
111 418 152 269 119 484 257 683 438 104 95 194 197 309 350 17 21 80 121 86
135 4 8 18 33 32 55 53 87 130 258 183 410 25 71 79 268 86 310 2 17 5 30 6
30 2 0 6 22 25 135 13 84 19 121 32 237 9 75 9 530 0 608 -8 72 -15 128 -23
175 -3 19 -7 44 -8 55 -8 50 -36 183 -46 215 -6 19 -13 46 -16 60 -6 30 -52
177 -64 205 -5 11 -21 51 -35 89 -98 268 -307 594 -516 807 -93 94 -239 219
-257 219 -5 0 -17 9 -27 20 -10 11 -24 20 -32 20 -7 0 -13 3 -13 8 0 4 -10 12
-23 18 -12 7 -69 36 -127 66 -58 31 -139 68 -180 83 -41 15 -84 31 -95 36 -11
5 -45 15 -75 23 -30 8 -62 17 -70 20 -8 3 -32 8 -54 11 -21 3 -42 7 -45 10 -4
2 -32 7 -62 11 -30 3 -67 8 -84 10 -16 2 -84 6 -150 8 -100 4 -129 9 -175 29
-79 35 -183 59 -275 63 -44 2 -84 3 -88 4 -20 1 94 136 164 195 46 38 192 104
268 121 42 9 79 19 84 23 8 8 -159 48 -238 57 -114 14 -240 10 -349 -10 -136
-25 -277 -98 -371 -192 -25 -24 -47 -44 -49 -44 -3 0 -3 12 -1 28 2 15 6 54
10 87 8 71 11 87 20 140 5 22 9 47 10 55 1 8 5 22 7 30 3 8 16 49 29 90 53
167 173 350 274 416 21 14 24 21 20 56 -12 88 -69 145 -156 155 -33 4 -41 -1
-93 -53z"/>
</g>
</svg>
