<?xml version="1.0" standalone="no"?>
<!DOCTYPE svg PUBLIC "-//W3C//DTD SVG 20010904//EN"
 "http://www.w3.org/TR/2001/REC-SVG-20010904/DTD/svg10.dtd">
<svg version="1.0" xmlns="http://www.w3.org/2000/svg"
 width="643.000000pt" height="643.000000pt" viewBox="0 0 643.000000 643.000000"
 preserveAspectRatio="xMidYMid meet">
<metadata>
Created by potrace 1.11, written by Peter Selinger 2001-2013
</metadata>
<g transform="translate(0.000000,643.000000) scale(0.100000,-0.100000)"
fill="#000000" stroke="none">
<path d="M3366 6374 c-32 -32 -65 -72 -73 -89 -9 -16 -19 -32 -23 -35 -21 -15
-102 -218 -116 -289 -1 -7 -7 -34 -13 -60 -6 -25 -13 -64 -16 -86 -3 -22 -7
-52 -10 -67 -4 -23 -13 -177 -15 -266 0 -21 -8 -16 -60 38 -125 126 -303 215
-492 245 -21 3 -38 3 -38 -2 0 -4 19 -25 43 -48 23 -22 54 -57 69 -77 15 -20
34 -43 42 -51 22 -22 123 -227 111 -227 -1 0 3 -21 11 -46 13 -43 12 -46 -4
-39 -146 57 -273 80 -422 77 -107 -2 -108 -2 -185 -18 -64 -14 -210 -72 -202
-81 2 -2 24 -6 48 -9 46 -6 67 -9 109 -18 14 -3 39 -8 55 -11 53 -11 158 -49
210 -77 l50 -27 -60 6 c-73 8 -303 7 -365 0 -176 -23 -266 -42 -413 -91 -43
-14 -94 -33 -115 -42 -257 -112 -440 -233 -609 -402 -89 -89 -117 -121 -195
-223 -66 -87 -82 -109 -98 -138 -8 -14 -17 -28 -20 -31 -22 -21 -143 -247
-190 -355 -11 -27 -25 -59 -31 -70 -15 -32 -88 -245 -84 -245 2 0 -3 -16 -11
-36 -8 -20 -13 -39 -10 -42 3 -3 2 -10 -3 -16 -9 -11 -37 -125 -46 -193 -4
-21 -8 -45 -10 -53 -2 -8 -7 -37 -11 -65 -3 -27 -8 -59 -10 -70 -12 -58 -19
-204 -18 -400 0 -196 4 -281 18 -380 2 -16 7 -50 10 -75 25 -194 106 -517 163
-650 8 -19 19 -44 23 -55 4 -11 26 -60 49 -108 22 -48 41 -92 41 -98 0 -5 5
-9 10 -9 6 0 10 -5 10 -10 0 -19 105 -185 180 -286 84 -112 302 -332 407 -412
89 -67 262 -180 273 -178 3 0 19 -8 35 -20 42 -29 182 -98 273 -135 43 -17 86
-35 97 -40 52 -23 257 -89 355 -114 72 -19 235 -51 310 -62 70 -10 443 -9 580
1 138 11 326 11 475 0 231 -16 554 -10 657 12 13 2 34 7 48 9 14 2 36 7 50 10
14 3 36 8 50 11 24 5 76 19 185 49 68 19 247 81 320 112 93 39 149 64 165 73
8 5 42 23 75 39 142 71 317 186 430 283 59 50 74 63 115 103 91 87 167 174
278 320 8 11 69 106 89 140 7 11 16 28 19 38 3 9 10 17 15 17 5 0 9 9 9 19 0
11 3 21 8 23 16 7 108 215 160 363 25 71 79 268 86 310 2 17 5 30 6 30 2 0 6
22 25 135 13 84 19 121 32 237 9 75 9 530 0 608 -8 72 -15 128 -23 175 -3 19
-7 44 -8 55 -9 54 -28 146 -42 195 -8 30 -17 66 -20 80 -6 31 -52 178 -64 205
-5 11 -21 51 -35 89 -98 267 -304 589 -511 802 -97 98 -243 224 -262 224 -5 0
-17 9 -27 20 -10 11 -24 20 -31 20 -7 0 -14 3 -16 8 -11 24 -283 154 -413 197
-146 48 -163 53 -209 59 -21 4 -42 8 -45 11 -4 2 -32 7 -62 11 -30 3 -67 8
-84 10 -16 2 -84 6 -150 8 -100 4 -129 9 -175 29 -79 35 -183 59 -275 63 -44
2 -84 3 -88 4 -21 1 100 143 169 198 65 53 258 130 337 135 39 3 11 15 -80 36
-216 48 -396 48 -563 0 -25 -7 -47 -13 -50 -14 -3 0 -31 -12 -62 -27 -74 -34
-138 -79 -193 -134 -25 -24 -47 -44 -49 -44 -3 0 -3 12 -1 28 2 15 6 54 10 87
8 71 11 87 20 140 5 22 9 47 10 55 1 8 5 22 7 30 3 8 16 49 29 90 53 167 173
350 274 416 21 14 24 21 20 56 -12 88 -69 145 -156 155 -33 4 -41 -1 -93 -53z"/>
</g>
</svg>
