<?xml version="1.0" encoding="UTF-8" standalone="no"?><!-- Generator: Gravit.io --><svg xmlns="http://www.w3.org/2000/svg" xmlns:xlink="http://www.w3.org/1999/xlink" style="isolation:isolate" viewBox="0 0.19 14.155 13.776" width="14.155pt" height="13.776pt"><defs><clipPath id="_clipPath_ZsTLbwYNI75JkJyDJjOKfQYDfMeB5NJo"><rect x="0" y="0.19" width="14.155" height="13.776"/></clipPath></defs><g clip-path="url(#_clipPath_ZsTLbwYNI75JkJyDJjOKfQYDfMeB5NJo)"><path d=" M 12.083 1.887 C 11.288 1.093 10.353 0.528 9.356 0.19 L 9.356 2.325 C 9.836 2.564 10.291 2.875 10.69 3.275 C 12.683 5.269 12.683 8.511 10.69 10.504 C 8.697 12.494 5.457 12.494 3.461 10.504 C 1.47 8.509 1.47 5.269 3.461 3.275 C 3.466 3.269 3.482 3.259 3.489 3.25 L 3.491 3.25 L 4.672 4.429 L 4.665 0.685 L 0.923 0.68 L 2.099 1.856 C 2.092 1.868 2.081 1.88 2.072 1.887 C -0.691 4.649 -0.691 9.13 2.072 11.892 C 4.839 14.657 9.317 14.657 12.083 11.892 C 14.844 9.13 14.847 4.649 12.083 1.887 Z " fill="rgb(51,51,51)"/></g></svg>