<?xml version="1.0" encoding="UTF-8" standalone="no"?><!-- Generator: Gravit.io --><svg xmlns="http://www.w3.org/2000/svg" xmlns:xlink="http://www.w3.org/1999/xlink" style="isolation:isolate" viewBox="0 3.762 369.794 362.268" width="369.794pt" height="362.268pt"><defs><clipPath id="_clipPath_NfRweIIKM4z8rHTPKre5A0dfMbHyLeto"><rect x="0" y="3.762" width="369.794" height="362.268"/></clipPath></defs><g clip-path="url(#_clipPath_NfRweIIKM4z8rHTPKre5A0dfMbHyLeto)"><path d=" M 320.83 140.434 L 319.071 139.807 L 312.201 123.408 L 312.946 121.723 C 333.758 74.522 332.323 73.114 328.871 69.692 L 301.11 42.61 C 299.975 41.484 297.982 40.692 296.264 40.692 C 294.702 40.692 289.971 40.692 248.97 59.262 L 247.326 60 L 230.41 53.188 L 229.731 51.504 C 210.45 3.762 208.475 3.762 203.677 3.762 L 164.472 3.762 C 159.692 3.762 157.515 3.762 139.636 51.587 L 138.963 53.328 L 122.135 60.188 L 120.526 59.519 C 92.774 47.819 76.57 41.886 72.346 41.886 C 70.632 41.886 68.632 42.655 67.492 43.778 L 39.705 70.938 C 36.18 74.415 34.718 75.871 56.62 122.087 L 57.425 123.801 L 50.544 140.182 L 48.86 140.833 C 0 159.715 0 161.556 0 166.474 L 0 204.892 C 0 209.823 0 211.871 48.957 229.416 L 50.707 230.034 L 57.589 246.367 L 56.85 248.036 C 36.038 295.259 37.358 296.537 40.901 300.061 L 68.62 327.18 C 69.782 328.297 71.793 329.095 73.508 329.095 C 75.06 329.095 79.78 329.095 120.808 310.534 L 122.451 309.765 L 139.378 316.611 L 140.036 318.304 C 159.329 366.03 161.311 366.03 166.112 366.03 L 205.329 366.03 C 210.253 366.03 212.295 366.03 230.188 318.173 L 230.855 316.431 L 247.71 309.617 L 249.314 310.271 C 277.043 322.004 293.239 327.925 297.436 327.925 C 299.135 327.925 301.153 327.18 302.312 326.032 L 330.144 298.813 C 333.645 295.318 335.104 293.889 313.163 247.717 L 312.347 245.983 L 319.216 229.673 L 320.856 229.03 C 369.794 210.049 369.794 208.199 369.794 203.275 L 369.794 164.88 C 369.793 159.95 369.793 157.914 320.83 140.434 Z  M 184.896 247.203 C 149.858 247.203 121.354 219.244 121.354 184.903 C 121.354 150.561 149.859 122.639 184.896 122.639 C 219.919 122.639 248.418 150.567 248.418 184.903 C 248.419 219.238 219.92 247.203 184.896 247.203 Z " fill="rgb(255,255,255)"/></g></svg>