<?xml version="1.0" encoding="UTF-8" standalone="no"?><!-- Generator: Gravit.io --><svg xmlns="http://www.w3.org/2000/svg" xmlns:xlink="http://www.w3.org/1999/xlink" style="isolation:isolate" viewBox="302.816 292.24 461.035 482.188" width="461.035pt" height="482.188pt"><defs><clipPath id="_clipPath_0otDXWPBtMAmlNOVBsNDUa2yIJq2Kaqx"><rect x="302.816" y="292.24" width="461.035" height="482.188"/></clipPath></defs><g clip-path="url(#_clipPath_0otDXWPBtMAmlNOVBsNDUa2yIJq2Kaqx)"><g><path d=" M 714.819 437.657 C 679.28 396.909 617.827 378.613 566.571 397.487 C 555.707 401.487 510.96 401.487 500.097 397.487 C 448.84 378.613 387.387 396.909 351.848 437.657 C 309.645 486.048 296.492 550.767 305.513 611.769 C 316.987 689.327 360.285 742.464 440.501 766.333 C 485.293 779.661 502.541 772.512 533.333 772.512 C 564.125 772.512 581.373 779.661 626.165 766.333 C 706.381 742.464 749.68 689.327 761.153 611.769 C 770.175 550.767 757.023 486.048 714.819 437.657" fill="rgb(226,34,37)"/><path d=" M 464.519 501.897 C 464.519 526.947 444.212 547.252 419.163 547.252 C 394.115 547.252 373.808 526.947 373.808 501.897 C 373.808 476.848 394.115 456.541 419.163 456.541 C 444.212 456.541 464.519 476.848 464.519 501.897 Z " fill="rgb(231,71,57)"/><path d=" M 714.819 437.657 C 679.28 396.909 617.827 378.613 566.571 397.487 C 555.707 401.487 510.96 401.487 500.097 397.487 C 483.228 391.275 465.259 389.164 447.467 390.48 C 476.716 396.844 477.731 433.885 569.413 427.087 C 654.609 420.771 717.513 547.252 669.04 651.401 C 638.932 716.091 536.168 759.868 401.272 750.824 C 413.221 756.884 426.251 762.092 440.501 766.333 C 485.295 779.661 502.541 772.512 533.333 772.512 C 564.125 772.512 581.373 779.661 626.167 766.333 C 706.381 742.464 749.68 689.327 761.153 611.768 C 770.175 550.767 757.023 486.048 714.819 437.657" fill="rgb(197,29,31)"/><path d=" M 531.672 378.071 C 523.216 356.739 502.256 343.859 479.423 341.575 C 490.409 352.161 498.423 361.181 502.117 379.655 C 490.14 372.923 457.784 368.043 440.025 380.707 C 463.659 383.359 476.761 388.641 490.505 404.46 C 490.505 404.46 480.884 413.371 478.895 423.195 C 477.476 430.203 479.615 446.261 479.615 446.261 C 494.2 425.569 529.033 436.125 530.617 414.487 C 530.617 414.487 566.505 421.348 580.228 446.153 C 582.865 413.432 567.033 407.625 567.033 407.625 C 582.163 396.719 610.487 404.46 626.641 409.473 C 616.116 393.919 592.997 380.695 571.897 383.541 C 580.373 368.152 595.448 359.516 612.932 357.8 C 586.496 348.707 548.951 349.099 531.672 378.071 L 531.672 378.071" fill="rgb(35,135,53)"/><path d=" M 549.04 292.261 C 520.429 314.863 523.521 369.808 526.9 396.085 C 528.964 397.113 531.523 397.351 534.38 395.523 C 534.469 379.6 535.665 354.811 541.58 338.209 C 550.097 314.292 563.529 307.084 563.529 307.084 C 563.529 291.031 549.04 292.261 549.04 292.261 Z " fill="rgb(31,121,47)"/></g></g></svg>