<?xml version="1.0" encoding="UTF-8" standalone="no"?><!-- Generator: Gravit.io --><svg xmlns="http://www.w3.org/2000/svg" xmlns:xlink="http://www.w3.org/1999/xlink" style="isolation:isolate" viewBox="0 0 50 50" width="50pt" height="50pt"><defs><clipPath id="_clipPath_LGWVaxttqOk9ZzaFbMUaBdKFPRFbQxR4"><rect width="50" height="50"/></clipPath></defs><g clip-path="url(#_clipPath_LGWVaxttqOk9ZzaFbMUaBdKFPRFbQxR4)"><g><path d=" M 2.5 5.5 C 2.5 7.157 3.306 8.5 4.3 8.5 L 45.7 8.5 C 46.694 8.5 47.5 7.157 47.5 5.5 C 47.5 3.843 46.694 2.5 45.7 2.5 L 4.3 2.5 C 3.306 2.5 2.5 3.843 2.5 5.5 Z " fill="rgb(255,255,255)"/><path d=" M 13.3 25 C 13.3 26.657 14.106 28 15.1 28 L 45.7 28 C 46.694 28 47.5 26.657 47.5 25 C 47.5 23.343 46.694 22 45.7 22 L 15.1 22 C 14.106 22 13.3 23.343 13.3 25 Z " fill="rgb(255,255,255)"/><path d=" M 24.1 44.5 C 24.1 46.157 24.906 47.5 25.9 47.5 L 45.7 47.5 C 46.694 47.5 47.5 46.157 47.5 44.5 C 47.5 42.843 46.694 41.5 45.7 41.5 L 25.9 41.5 C 24.906 41.5 24.1 42.843 24.1 44.5 Z " fill="rgb(255,255,255)"/></g></g></svg>