<?xml version="1.0" encoding="UTF-8" standalone="no"?><!-- Generator: Gravit.io --><svg xmlns="http://www.w3.org/2000/svg" xmlns:xlink="http://www.w3.org/1999/xlink" style="isolation:isolate" viewBox="0 0 512 512" width="512pt" height="512pt"><defs><clipPath id="_clipPath_8SB5LOxN0Yn32CStEG2PmGdNCo7G2qIt"><rect x="0" y="0" width="512" height="512"/></clipPath></defs><g clip-path="url(#_clipPath_8SB5LOxN0Yn32CStEG2PmGdNCo7G2qIt)"><g><path d=" M 256 0 C 114.836 0 0 114.836 0 256 C 0 397.164 114.836 512 256 512 C 397.164 512 512 397.164 512 256 C 512 114.836 397.164 0 256 0 Z " fill="rgb(253,77,75)"/><path d=" M 368 277.332 L 277.332 277.332 L 277.332 368 C 277.332 379.777 267.777 389.332 256 389.332 C 244.223 389.332 234.668 379.777 234.668 368 L 234.668 277.332 L 144 277.332 C 132.223 277.332 122.668 267.777 122.668 256 C 122.668 244.223 132.223 234.668 144 234.668 L 234.668 234.668 L 234.668 144 C 234.668 132.223 244.223 122.668 256 122.668 C 267.777 122.668 277.332 132.223 277.332 144 L 277.332 234.668 L 368 234.668 C 379.777 234.668 389.332 244.223 389.332 256 C 389.332 267.777 379.777 277.332 368 277.332 L 368 277.332 Z " fill="rgb(250,250,250)"/></g></g></svg>