<?xml version="1.0" encoding="UTF-8" standalone="no"?><!-- Generator: Gravit.io --><svg xmlns="http://www.w3.org/2000/svg" xmlns:xlink="http://www.w3.org/1999/xlink" style="isolation:isolate" viewBox="124.719 96.355 201.839 258.567" width="201.839pt" height="258.567pt"><defs><clipPath id="_clipPath_EnzJO5Oetia76OMNIDEsWCDiUG4VtlFv"><rect x="124.719" y="96.355" width="201.839" height="258.567"/></clipPath></defs><g clip-path="url(#_clipPath_EnzJO5Oetia76OMNIDEsWCDiUG4VtlFv)"><path d=" M 139.941 124.878 C 139.941 179.553 176.886 223.961 222.968 225.637 C 176.885 227.313 139.941 271.724 139.941 326.398 L 225.639 326.398 L 225.639 124.878 L 139.941 124.878 Z " fill="rgb(255,255,255)"/><path d=" M 228.309 225.637 C 274.391 223.961 311.336 179.552 311.336 124.878 L 225.639 124.878 L 225.639 326.399 L 311.336 326.399 C 311.336 271.724 274.391 227.314 228.309 225.637 Z " fill="rgb(235,240,243)"/><path d=" M 210.571 163.948 C 205.245 163.233 200.024 161.518 194.672 161.189 C 184.984 160.59 175.572 164.531 166.078 166.887 C 161.819 167.944 157.498 168.618 153.16 169.039 C 166.607 199.514 193.429 220.517 224.446 221.046 C 223.565 222.635 222.781 224.822 221.912 226.227 C 219.383 230.316 215.89 233.21 213.43 237.388 C 209.788 243.571 208.754 251.759 205.352 258.169 C 203.16 262.298 200.072 265.52 197.857 269.629 C 195.694 273.641 194.431 278.371 192.289 282.405 C 190.115 286.496 187.118 289.718 184.537 293.395 C 177.58 303.306 173.717 316.326 166.933 326.399 L 225.638 326.399 L 225.638 163.994 C 220.607 164.391 215.571 164.621 210.571 163.948 Z " fill="rgb(252,212,98)"/><path d=" M 283.797 315.429 C 281.962 312.992 279.349 311.44 278.135 308.42 C 277.05 305.724 277.261 302.222 275.708 299.938 C 273.854 297.215 270.407 297.542 268.183 295.327 C 265.504 292.66 265.398 287.202 262.843 284.337 C 261.486 282.817 259.529 282.145 258.579 280.174 C 257.877 278.714 257.902 276.886 257.637 275.202 C 256.701 269.245 252.279 265.477 248.267 262.314 C 246.394 260.838 244.491 259.308 243.101 257.111 C 242.201 255.687 241.549 254.035 240.905 252.396 C 238.78 246.993 236.656 241.588 234.531 236.185 C 232.802 231.789 231.193 224.849 228.668 220.961 C 260.922 219.561 288.415 196.063 300.592 162.949 C 277.777 162.189 254.926 161.54 232.164 163.449 C 229.993 163.631 227.816 163.822 225.64 163.993 L 225.64 326.398 L 286.767 326.398 C 287.083 322.477 285.914 318.243 283.797 315.429 Z " fill="rgb(246,195,88)"/><path d=" M 326.558 110.616 C 326.558 102.741 321.136 96.355 314.448 96.355 L 225.639 96.355 L 225.639 124.878 L 314.448 124.878 C 321.135 124.878 326.558 118.492 326.558 110.616 Z " fill="rgb(58,85,106)"/><g><path d=" M 136.829 96.355 C 130.141 96.355 124.719 102.74 124.719 110.616 C 124.719 118.492 130.141 124.878 136.829 124.878 L 225.638 124.878 L 225.638 96.355 L 136.829 96.355 Z " fill="rgb(100,121,138)"/><path d=" M 136.829 326.399 C 130.141 326.399 124.719 332.784 124.719 340.661 C 124.719 348.536 130.141 354.922 136.829 354.922 L 225.638 354.922 L 225.638 326.399 L 136.829 326.399 Z " fill="rgb(100,121,138)"/></g><path d=" M 314.447 326.399 L 225.638 326.399 L 225.638 354.922 L 314.447 354.922 C 321.135 354.922 326.557 348.537 326.557 340.661 C 326.558 332.783 321.135 326.399 314.447 326.399 Z " fill="rgb(58,85,106)"/></g></svg>